<?xml version="1.0" encoding="utf-8"?>
<!-- Generator: Adobe Illustrator 18.0.0, SVG Export Plug-In . SVG Version: 6.00 Build 0)  -->
<!DOCTYPE svg PUBLIC "-//W3C//DTD SVG 1.1//EN" "http://www.w3.org/Graphics/SVG/1.1/DTD/svg11.dtd">
<svg version="1.1" id="Layer_1" xmlns="http://www.w3.org/2000/svg" xmlns:xlink="http://www.w3.org/1999/xlink" x="0px" y="0px"
	 viewBox="344.1 106.9 764.1 604.3" enable-background="new 344.1 106.9 764.1 604.3" xml:space="preserve">
<title>Empty state</title>
<desc>Created with Sketch.</desc>
<g id="Empty-state">
	<g id="Scene_x2F_Empty" transform="translate(264.000000, -14.000000)">
		<g id="Plant" transform="translate(80.108108, 351.198529)">
			<path id="Fill-19" fill="#D3DCE6" d="M12.2,48.1c23,42.1,49.8,82.9,65.9,129c-0.6-5.4-1.3-10.9-2.1-16.3
				c-4.1-28.7-9.2-57.2-14.5-85.7C58.8,60.6,56,46.2,53,31.7c-1.6-7.8-3.1-15.5-4.8-23.3C47.9,6.6,47.5,3.3,47,0
				c15.6,56,30.7,112.1,41.7,169.5c1.4,7.5,2.7,15,3.7,22.5c0.3-1.7,0.7-3.4,1.1-5.1c4.5-20.5,11.2-40.8,19.1-59.9
				c3.8-9.1,8.2-18.1,13.3-26.4c3.2-5.2,10.8-11.4,13.7-16.7c-16,32.1-21.8,72.3-31.1,107.2c-2.3,8.5-4.5,17-6.8,25.5
				c14-30.6,35.6-55.7,65.7-66.6c-36.5,26.3-58.3,72.4-73.1,119.5c0,0.6-0.1,1.1-0.2,1.7c4.3-9,9.8-17.1,17.2-22.8
				c15.8-12.2,33.4-8.6,48.8,1.8c-12.1-8.4-33.9-0.7-44,7.8c-7.3,6.1-13.5,14.3-18.9,22.2c-1.3,1.9-3.1,4.1-4.9,6.5
				c-2.6,18.5-6.9,36.9-12.9,55.1c1-5.2,0.3-13.6,0.6-17.5c0-0.4,0.1-0.8,0.1-1.3c-0.9,4-1.8,7.9-2.7,11.8c1.7-7.4,2.6-15.1,3.3-23
				c0.2-3.4,0.4-6.7,0.6-10.1c-0.1-6.4-0.3-12.8-0.7-19.2c-1.4-6.2-3.1-12.1-4.4-17C71.7,248,64.6,231.1,56,215.4
				C48.1,201,38.6,188,27.7,176.2c-5.9-6.3-12.1-12.4-18.1-18.5c-2.2-2.2-6.1-7.7-9.5-10.5c24.7,14.9,50.2,31,68.3,55
				c-2.1-8.9-4.4-17.6-6.8-26.2C49.1,132.5,33.5,87.4,12.2,48.1z"/>
			<path id="Base" fill="#C5CFD6" d="M37,286.6c0,48.3,3.5,87.5,50.5,87.5s50.5-39.2,50.5-87.5"/>
		</g>
		<g id="Group" transform="translate(273.600000, 119.757353)">
			<g id="Plant-Right" transform="translate(396.843243, 0.000000)" opacity="0.7">
				<g id="Group-2" transform="translate(0.616216, 0.000000)">
					<path id="Leaf-Me-Alone_x21_" fill="#90B5B5" d="M18.7,104.1c9.2-0.5,20.6,5.4,21.5,16.3c0.7,7.9,0.5,15.9,1.6,23.8
						c0.9,6.3,2.7,12.4,5.3,18.2c2.4,5.6,7.5,10.3,8.8,16.2c0.8,3.8,0.4,9.1-0.8,12.8c-1.4,4.5-0.7,4.1,2.1,7.9
						c5.5,7.4,10.5,15,14,23.8c5.1,12.7,8.4,27.6,6.5,41.5c-0.2,1.8-0.5,8.1-2.7,8.6c-2.5,0.5-1.3-3.1-1.2-4.3
						c0.8-7.5,1.6-14,0.6-21.6c-3.9-29.3-23.2-48.6-35.7-73.5c-0.7-1.3-2.1-4.3-3.1-6.4c-1.6-3.2-3.2-9.2-5.4-11.6
						c-4.1-4.4-0.3,4.5,0.5,6.2c1,2.2,2.1,4.5,3.1,6.3c4.7,8.8,9.9,18.3,14.8,27.4c-21,5.2-35.7-22.4-41.4-40.5
						C2.7,140.3-2.9,105.4,18.7,104.1"/>
					<path id="Leaf-Me-Alone_x21__1_" fill="#A4CACA" d="M141.5,76.8c-15.3,1.3-25.1,12.4-29.7,28c-2.5,8.4-2.7,17-4.1,25.6
						c-2.1,12.9-6.5,22.7-15.1,31.9c-2.7,2.9-4.7,5.8-6.1,8.9c-2.8,3.1-5.2,6.7-7,11c-2.3,5.5-2.9,12.2-0.3,17.7
						c0.7,1.5,2.5,4.5,4.3,5.8c-6.8,16-10.6,33.6-10.2,51.1c0.3,10.6,0.7,21.2,1.3,31.8c0.1,2.8,1,7.5,2.3,2.8
						c1.2-4.4-0.3-11.2-0.4-15.7c-0.7-22.2-1.2-42.3,7.1-63c0.9-2.2,1.8-4.3,2.8-6.5c0.1,0,0.1-0.1,0.2-0.1c0,0,0.1,0.1,0.1,0.1
						c0.1-0.1,0.1-0.3,0.2-0.4c0.3-0.3,0.5-0.7,0.7-1.1c0.7-1.1,1.6-2.4,1.6-3.2c0,0,0,0,0,0c5.1-9.2,11-17.9,17-26.5
						c0,0.1,6.5-9.8,5.5-4.3c-0.5,2.6-5.3,7.6-7.3,10.4c-4.3,6.2-9.4,14-13.6,21.6c-0.6,0.4-1.4,2.1-1.9,3.4
						c-0.3,0.7-0.6,1.3-0.9,1.9c14.9,5.4,26.5-5.5,34.4-18.2c0,0,0,0,0,0c2.4-3.5,4.9-7,8-9.8c5.1-4.6,10.6-5.4,16.7-7.7
						c16.5-6.2,23.5-29.8,25.8-47.2C175.4,105.1,163,74.8,141.5,76.8"/>
					<path id="Leaf-Me-Alone_x21__2_" fill="#A4CACA" d="M114.5,3.3c-17,19.3-25.2,46.2-31.7,71.4c-7.3,28.2-12,56.8-12.2,86.1
						c-0.1,19.3-0.6,38.6,0.4,57.8c0.4,6.8,1,13.7,2,20.4c0.1,0.6,2.3,15.6,4.4,12.1c1.2-2-2.3-15.6-2.5-17.9
						c-1.5-12.8-1.8-25.7-1.7-38.6c0.1-21.2-0.5-42.4,1.5-63.5c0.3-3.2,0.5-6.5,1.2-9.6c0.7-3.3-0.2-1.9,2.2-3.2
						c2.3-1.3,5.2-1.1,7.5-2.7c9.5-6.3,14.3-22.5,18.1-33.1c4.3-12.1,6.9-25.1,9-37.8c1.5-9.4,2.6-18.7,3.3-28.2
						c0.2-3,0.2-6.1,0.7-9.1c0.1-0.8,0.9-2.2,0.8-2.9c-0.1-1.5-0.9-2.4-0.9-3.6C115.8,1.9,115.1,2.6,114.5,3.3"/>
				</g>
				<path id="Base_1_" fill="#A4CACA" d="M35.7,274.5c0,23,17.9,41.7,40.1,41.7s40.1-18.7,40.1-41.7"/>
				<path id="Leaf-Me-Alone_x21__3_" fill="#90B5B5" d="M79,275.8h-2.6c0.2-3.4,0.4-6.9,1-10.3c2.1-13.5,8.7-33.4,23.1-35.6
					c0.5-0.1,2.5-0.1,4.9,0.1c1.1-0.7,2.4-1.1,3.7-1.2c12.3-1,26,9.8,31.9,21c4.8,9,4,20.9,1,30.5c-2,6.4-6.3,15.6-13.5,15.7
					c-9,0.1-9.4-12-9.6-19c-0.2-9.4-1.3-17.6-8.1-24c-1.6-1.5-3.3-2.8-4.9-4.3c-2.5-2.3-5.3-4.7-5.6-8.5c-0.4-5.3,2.3-6.2,6.5-5.2
					c0.7,0.2,7.9,3.7,6.8,0.9c-0.3-0.8-1.5-1.5-3-2c-3.9-0.5-8.5-1-9.8-0.7c-14.3,3.4-19.8,24.9-21.3,38.6
					C79.3,273.1,79.1,274.5,79,275.8z"/>
			</g>
			<g id="Desk" transform="translate(0.000000, 302.757353)">
				<path id="Rectangle" fill="#172B4E" d="M20.5,13.5h528.4c1.1,0,2,0.9,2,2v2.7c0,1.1-0.9,2-2,2H20.5c-1.1,0-2-0.9-2-2v-2.7
					C18.5,14.4,19.4,13.5,20.5,13.5z"/>
				<path id="Rectangle_1_" fill="#172B4E" d="M72.3,17.1l22.3,0c1.1,0,2,0.9,2,2c0,0.5-0.2,1-0.5,1.4L84.9,32.6
					c-0.7,0.8-2,0.9-2.8,0.1c0,0-0.1-0.1-0.1-0.1L70.9,20.5c-0.7-0.8-0.7-2.1,0.1-2.8C71.3,17.3,71.8,17.1,72.3,17.1z"/>
				<polygon id="Path-7" fill="#172B4E" points="0,268.1 17.2,268.1 79.3,35.9 72.7,29.6 				"/>
				<polygon id="Path-7-Copy" fill="#172B4E" points="166.9,268.1 149.7,268.1 87.5,35.9 94.2,29.6 				"/>
				<g id="Group-10" transform="translate(38.205405, 188.382353)">
					<polygon id="Rectangle_2_" fill="#172B4E" points="3.7,0 86.3,0 90,21.5 0,21.5 					"/>
					<ellipse id="Oval" fill="#879BA6" cx="15.4" cy="11.4" rx="5.5" ry="6.1"/>
					<ellipse id="Oval-Copy-2" fill="#879BA6" cx="75" cy="11.4" rx="5.5" ry="6.1"/>
				</g>
				<g id="Group-13" transform="translate(379.589189, 20.183824)">
					<g id="Group-12">
						<path id="Rectangle_3_" fill="#EAEFF4" d="M5,0h142.8c2.8,0,5,2.2,5,5v237.6c0,2.8-2.2,5-5,5H5c-2.8,0-5-2.2-5-5V5
							C0,2.2,2.2,0,5,0z"/>
						<g id="Path-8-Copy-2" transform="translate(6.162162, 4.036765)">
						</g>
					</g>
					<g id="Group-11" transform="translate(6.162162, 4.036765)">
						<path id="Path-8" fill="#FFFFFF" d="M0,82v85.5c0,2.2,1.8,4,4,4h132.8c2.2,0,4-1.8,4-4V82c0-2.2-1.8-4-4-4h-28
							c-1.6,0-3.2,0.8-4.1,2.2l-3.8,5.5c-0.9,1.4-2.5,2.2-4.1,2.2H49.2c-1.5,0-3-0.7-3.9-1.9l-4.6-6c-0.9-1.2-2.4-1.9-3.9-1.9H4
							C1.8,78,0,79.8,0,82z"/>
						<path id="Path-8-Copy" fill="#FFFFFF" d="M0,178.9v50c0,2.2,1.8,4,4,4h132.8c2.2,0,4-1.8,4-4v-50c0-2.2-1.8-4-4-4h-28
							c-1.6,0-3.2,0.8-4.1,2.2l-3.8,5.5c-0.9,1.4-2.5,2.2-4.1,2.2H49.2c-1.5,0-3-0.7-3.9-1.9l-4.6-6c-0.9-1.2-2.4-1.9-3.9-1.9H4
							C1.8,174.9,0,176.7,0,178.9z"/>
						<path id="Path-8-Copy-3" fill="#FFFFFF" d="M0,4v27c0,2.2,1.8,4,4,4h132.8c2.2,0,4-1.8,4-4V4c0-2.2-1.8-4-4-4h-28
							c-1.6,0-3.2,0.8-4.1,2.2l-3.8,5.5C100,9,98.4,9.8,96.8,9.8H49.2c-1.5,0-3-0.7-3.9-1.9l-4.6-6C39.7,0.7,38.3,0,36.7,0H4
							C1.8,0,0,1.8,0,4z"/>
						<path id="Path-8-Copy-4" fill="#FFFFFF" d="M0,43v27c0,2.2,1.8,4,4,4h132.8c2.2,0,4-1.8,4-4V43c0-2.2-1.8-4-4-4h-28
							c-1.6,0-3.2,0.8-4.1,2.2l-3.8,5.5c-0.9,1.4-2.5,2.2-4.1,2.2H49.2c-1.5,0-3-0.7-3.9-1.9l-4.6-6c-0.9-1.2-2.4-1.9-3.9-1.9H4
							C1.8,39,0,40.8,0,43z"/>
					</g>
				</g>
			</g>
			<g id="Computer" transform="translate(165.145946, 121.102941)">
				<polygon id="Rectangle_4_" fill="#B9C4D0" points="103.5,141.3 151.6,141.3 160.2,195.1 94.9,195.1 				"/>
				<g id="Group-4">
					<g id="Rectangle_5_">
						<path id="path-1_1_" fill="#D3DCE6" d="M14.9,5.4h230.3c2.8,0,5,2.2,5,5v148.8c0,2.8-2.2,5-5,5H14.9c-2.8,0-5-2.2-5-5V10.4
							C9.9,7.6,12.1,5.4,14.9,5.4z"/>
					</g>
					<defs>
						<filter id="Adobe_OpacityMaskFilter" filterUnits="userSpaceOnUse" x="0" y="0" width="255.1" height="125.1">
							<feColorMatrix  type="matrix" values="1 0 0 0 0  0 1 0 0 0  0 0 1 0 0  0 0 0 1 0"/>
						</filter>
					</defs>
					<mask maskUnits="userSpaceOnUse" x="0" y="0" width="255.1" height="125.1" id="mask-2">
						<g filter="url(#Adobe_OpacityMaskFilter)">
							<path id="path-1" fill="#FFFFFF" d="M14.9,5.4h230.3c2.8,0,5,2.2,5,5v148.8c0,2.8-2.2,5-5,5H14.9c-2.8,0-5-2.2-5-5V10.4
								C9.9,7.6,12.1,5.4,14.9,5.4z"/>
						</g>
					</mask>
					<rect id="Rectangle_6_" x="0" y="0" mask="url(#mask-2)" fill="#172B4E" width="255.1" height="125.1"/>
				</g>
				<g id="Group-6" transform="translate(61.621622, 174.926471)">
					<g id="Rectangle_7_">
					</g>
					<defs>
						<filter id="Adobe_OpacityMaskFilter_1_" filterUnits="userSpaceOnUse" x="3.7" y="8.1" width="123.2" height="36.3">
							<feColorMatrix  type="matrix" values="1 0 0 0 0  0 1 0 0 0  0 0 1 0 0  0 0 0 1 0"/>
						</filter>
					</defs>
					<mask maskUnits="userSpaceOnUse" x="3.7" y="8.1" width="123.2" height="36.3" id="mask-4">
						<g filter="url(#Adobe_OpacityMaskFilter_1_)">
							<rect id="path-3" x="0" y="0" fill="#FFFFFF" width="134.3" height="20.2"/>
						</g>
					</mask>
					<path id="Rectangle_8_" mask="url(#mask-4)" fill="#B9C4D0" d="M8.7,8.1h113.2c2.8,0,5,2.2,5,5v26.3c0,2.8-2.2,5-5,5H8.7
						c-2.8,0-5-2.2-5-5V13.1C3.7,10.3,5.9,8.1,8.7,8.1z"/>
				</g>
				<ellipse id="Oval_1_" fill="#FFFFFF" cx="128.2" cy="144" rx="7.4" ry="8.1"/>
				<g id="Group-9" transform="translate(89.967568, 28.257353)">
					<g id="Group-7" transform="translate(36.972973, 12.110294)">
						<path id="Path-6" fill="none" stroke="#FFFFFF" stroke-width="3" stroke-linecap="round" d="M0.6,13.3V0"/>
						<path id="Path-6-Copy" fill="none" stroke="#FFFFFF" stroke-width="3" stroke-linecap="round" d="M0.6,57.7V44.4"/>
					</g>
					
						<g id="Group-8" transform="translate(37.472837, 40.913406) rotate(-45.000000) translate(-37.472837, -40.913406) translate(10.975540, 11.983259)">
						<g id="Group-7-Copy-2" transform="translate(25.881081, 0.000000)">
							<path id="Path-6_1_" fill="none" stroke="#FFFFFF" stroke-width="3" stroke-linecap="round" d="M0.6,13.3V0"/>
							<path id="Path-6-Copy_1_" fill="none" stroke="#FFFFFF" stroke-width="3" stroke-linecap="round" d="M0.6,57.7V44.4"/>
						</g>
						
							<g id="Group-7-Copy-3" transform="translate(26.497297, 28.930147) rotate(-90.000000) translate(-26.497297, -28.930147) translate(25.881081, 0.000000)">
							<path id="Path-6_2_" fill="none" stroke="#FFFFFF" stroke-width="3" stroke-linecap="round" d="M0.6,13.3V0"/>
							<path id="Path-6-Copy_2_" fill="none" stroke="#FFFFFF" stroke-width="3" stroke-linecap="round" d="M0.6,57.7V44.4"/>
						</g>
					</g>
					
						<g id="Group-7-Copy" transform="translate(37.589189, 41.040441) rotate(-90.000000) translate(-37.589189, -41.040441) translate(36.972973, 12.110294)">
						<path id="Path-6_3_" fill="none" stroke="#FFFFFF" stroke-width="3" stroke-linecap="round" d="M0.6,13.3V0"/>
						<path id="Path-6-Copy_3_" fill="none" stroke="#FFFFFF" stroke-width="3" stroke-linecap="round" d="M0.6,57.7V44.4"/>
					</g>
				</g>
			</g>
			<g id="Cup" transform="translate(65.318919, 150.705882)">
				<g id="Group-14" transform="translate(4.929730, 113.029412)">
					<path id="Oval_2_" fill="none" stroke="#2C47B8" stroke-width="5" d="M14.2,40.4c7.1,0,12.9-6.4,12.9-14.3s-5.8-11.9-12.9-14.3
						S-2.5,10.4,0.6,23.1S7.1,40.4,14.2,40.4z"/>
					<g id="Rectangle_9_">
						<path id="path-5_1_" fill="#4364F0" d="M15.5,0h49c2.2,0,4,1.8,4,4c0,0.1,0,0.3,0,0.4l-4.1,39.1c-0.5,5.1-4.8,9-9.9,9H25.6
							c-5.1,0-9.4-3.9-9.9-9L11.6,4.4c-0.2-2.2,1.4-4.2,3.6-4.4C15.3,0,15.4,0,15.5,0z"/>
					</g>
					<defs>
						<filter id="Adobe_OpacityMaskFilter_2_" filterUnits="userSpaceOnUse" x="-7.4" y="-13.5" width="53" height="79.4">
							<feColorMatrix  type="matrix" values="1 0 0 0 0  0 1 0 0 0  0 0 1 0 0  0 0 0 1 0"/>
						</filter>
					</defs>
					<mask maskUnits="userSpaceOnUse" x="-7.4" y="-13.5" width="53" height="79.4" id="mask-6">
						<g filter="url(#Adobe_OpacityMaskFilter_2_)">
							<path id="path-5" fill="#FFFFFF" d="M15.5,0h49c2.2,0,4,1.8,4,4c0,0.1,0,0.3,0,0.4l-4.1,39.1c-0.5,5.1-4.8,9-9.9,9H25.6
								c-5.1,0-9.4-3.9-9.9-9L11.6,4.4c-0.2-2.2,1.4-4.2,3.6-4.4C15.3,0,15.4,0,15.5,0z"/>
						</g>
					</mask>
					<path id="Path-9" mask="url(#mask-6)" fill="#2C47B8" d="M37.5-13.5C27.3-5.5,23.9,3,27.3,12c5.1,13.5,18.3,18.3,18.3,31.6
						c0,8.9-5.9,16.3-17.7,22.3l-31-1.5l-4.2-77.9H37.5z"/>
				</g>
				<g id="Group-15">
					<path id="Path-10" fill="#FFFFFF" d="M42.4,107.1C43.6,95.7,36.9,84,22.2,72C0.2,54-10.6,2.7,17.7,1.3S33.8,35,33.8,35
						s17.7-9.4,23.4,0s1.2,15.6-6.8,21.5s-16,15.9-8,27.4C47.7,91.7,47.7,99.4,42.4,107.1z"/>
					<path id="Oval_3_" fill="#FFFFFF" d="M47.8,83.9c3.3,2,7.9-0.4,10.4-5.2c2.5-4.9,0.9-14.1-3.2-14.1s-6.2,2-8.7,6.9
						C43.9,76.4,44.6,82,47.8,83.9z"/>
				</g>
			</g>
			<g id="Chair" transform="translate(98.594595, 255.661765)">
				<g id="Group-3" transform="translate(6.162162, 178.963235)">
					<path id="Path-5" fill="none" stroke="#172B4E" stroke-width="3" d="M30.8,78.5L144.9,6.7"/>
					<path id="Path-5-Copy" fill="none" stroke="#172B4E" stroke-width="3" d="M165.9,78.5L51.8,6.7"/>
					<path id="Oval_4_" fill="#4364F0" d="M13.8,148.2c2.5-2,41.3-136.2,41.3-138.3s-10-4.1-10-2.6S0,146.1,0,148.2
						S11.2,150.2,13.8,148.2z"/>
					<path id="Oval-Copy" fill="#4364F0" d="M184.3,148.2c-2.5-2-42.4-140.7-42.4-142.8s11-6,11-4.5s45.1,145.2,45.1,147.3
						S186.8,150.2,184.3,148.2z"/>
				</g>
				<path id="Oval_5_" fill="#FFFFFF" d="M102.5,189.2c22.5,0,46.9-6.8,73.7-23.7c12.2-7.7,22.8-6.9,19.4-18.2
					c-9.1-30.9-27.9-138.5-54.3-144.2C123-0.8,58.7-2.6,45.7,7.7c-21.8,17.2-41,111-43.6,125.5c-6.5,36.3,2.6,19.7,19.3,35
					C45.7,190.4,81.4,189.2,102.5,189.2z"/>
				<path id="Oval_6_" fill="#EAEFF4" d="M109.2,65.4c12.7,6.7,26.9,13.7,39,30.3c28.7,39.4,4.1,72.5,12.6,68.5
					c10.7-5,26-8.2,26-15.5c0-20.8-30.7-138.5-49.5-139.3c-14.6-0.6-76.9-4.4-90.5,5.7c-11.4,8.5-30.4,81.6-30.4,92.7
					c0,4.5,8.2,0.1,14.1-12c10-20.5,14.3-53.8,36.7-59.9C101.7,26.5,96.5,58.7,109.2,65.4z"/>
			</g>
		</g>
	</g>
</g>
</svg>
