<?xml version="1.0" encoding="UTF-8"?>
<svg width="65px" height="44px" viewBox="0 0 65 44" version="1.1" xmlns="http://www.w3.org/2000/svg" xmlns:xlink="http://www.w3.org/1999/xlink">
    <!-- Generator: Sketch 47.1 (45422) - http://www.bohemiancoding.com/sketch -->
    <title>Group 10</title>
    <desc>Created with Sketch.</desc>
    <defs>
        <path d="M32.2,18.0686292 L32.2,8.8 C32.2,8.3581722 32.5581722,8 33,8 C33.4418278,8 33.8,8.3581722 33.8,8.8 L33.8,18.0686292 L35.6343146,16.2343146 C35.946734,15.9218951 36.453266,15.9218951 36.7656854,16.2343146 C37.0781049,16.546734 37.0781049,17.053266 36.7656854,17.3656854 L33.5656854,20.5656854 C33.253266,20.8781049 32.746734,20.8781049 32.4343146,20.5656854 L29.2343146,17.3656854 C28.9218951,17.053266 28.9218951,16.546734 29.2343146,16.2343146 C29.546734,15.9218951 30.053266,15.9218951 30.3656854,16.2343146 L32.2,18.0686292 Z M25,20.8 C25,20.3581722 25.3581722,20 25.8,20 C26.2418278,20 26.6,20.3581722 26.6,20.8 L26.6,23.2 C26.6,23.6418278 26.9581722,24 27.4,24 L38.6,24 C39.0418278,24 39.4,23.6418278 39.4,23.2 L39.4,20.8 C39.4,20.3581722 39.7581722,20 40.2,20 C40.6418278,20 41,20.3581722 41,20.8 L41,23.2 C41,24.5254834 39.9254834,25.6 38.6,25.6 L27.4,25.6 C26.0745166,25.6 25,24.5254834 25,23.2 L25,20.8 Z" id="path-1"></path>
    </defs>
    <g id="Page-1" stroke="none" stroke-width="1" fill="none" fill-rule="evenodd">
        <g id="My-projects-Copy-2" transform="translate(-742.000000, -574.000000)">
            <g id="Group-10" transform="translate(742.000000, 574.000000)">
                <g id="noun_Pig_437493" fill-rule="nonzero">
                    <g id="Group">
                        <path d="M47.2105263,35.5968342 C48.1,38.5970567 49.4,42.6882691 50.4947368,43.9156328 L53.3684211,43.9156328 C53.3684211,43.9156328 52.6157895,39.2789254 52.1368421,34.7785917 C50.4947368,35.1195261 48.7842105,35.3922736 47.2105263,35.5968342 Z" id="Shape" fill="#1A4FAD"></path>
                        <path d="M20.2526316,34.5740311 C20.2526316,34.642218 20.1842105,34.642218 20.1842105,34.7104048 C21.0736842,38.0515617 22.6473684,41.8700266 25.6578947,43.9156328 L27.9842105,43.9156328 C27.9842105,43.9156328 27.3,39.5516729 27.3,35.8695817 C24.2894737,35.4604605 21.8947368,35.0513392 20.2526316,34.5740311 Z" id="Shape" fill="#1A4FAD"></path>
                        <path d="M57.0631579,16.7772571 C57.0631579,16.7772571 66.3,16.3681358 63.9052632,5.73098351 C61.1,10.7768122 53.3,7.50384223 51.1105263,15.4135196 C51.1105263,15.4135196 50.0842105,11.3223072 52.6842105,8.39027158 C47.0736842,-2.17869385 18.6789474,-4.01973944 10.0578947,10.299504 C10.0578947,10.299504 9.30526316,9.75400906 8.48421053,8.93576657 C10.6052632,7.98115034 12.1789474,5.59460976 11.8368421,3.61719042 C11.4263158,1.50339734 8.75789474,0.139659862 6.56842105,1.09427609 C4.10526316,2.18526607 3.83157895,4.36724603 4.37894737,6.68559974 C3.48947368,6.2764785 2.6,5.52642289 1.64210526,4.36724603 C1.02631579,3.6853773 -0.478947368,4.50361978 0.615789474,6.14010475 C1.50526316,7.36746848 3.28421053,8.79939283 5.33684211,9.20851407 C6.56842105,11.935989 8.34736842,14.1861559 8.34736842,14.1861559 C8.14210526,18.2091814 8.34736842,37.5060667 13.3421053,43.8474459 L16.1473684,43.8474459 C16.1473684,43.8474459 16.6947368,36.7560111 19.7052632,33.005733 C22.2368421,33.8921624 29.0789474,35.1195261 37.7684211,34.9149655 C38.9315789,38.3243092 40.8473684,42.2791478 42.4894737,43.7792591 L45.1578947,43.7792591 C45.1578947,43.7792591 44.8157895,38.6652435 44.7473684,34.4376574 C50.1526316,33.8921624 56.0368421,32.7329855 61.7842105,30.6873793 C64.2473684,29.8009499 64.5210526,27.3462225 64.6578947,23.9368788 C56.4473684,23.1868232 61.2368421,18.4819289 57.0631579,16.7772571 Z M6.91052632,6.95834724 C6.29473684,5.79917038 6.08947368,4.57180666 7.38947368,3.6853773 C8.75789474,2.73076106 10.3315789,4.23087229 8.96315789,5.59460976 C8.34736842,6.20829162 7.66315789,6.68559974 6.91052632,6.95834724 Z M55.9,24.4823738 C55.0789474,24.4823738 54.3947368,23.8005051 54.3947368,22.9822626 C54.3947368,22.1640201 55.0789474,21.4821513 55.9,21.4821513 C56.7210526,21.4821513 57.4052632,22.1640201 57.4052632,22.9822626 C57.4052632,23.8686919 56.7210526,24.4823738 55.9,24.4823738 Z" id="Shape" fill="#2C72EF"></path>
                    </g>
                </g>
                <mask id="mask-2" fill="white">
                    <use xlink:href="#path-1"></use>
                </mask>
                <use id="Combined-Shape" fill="#FFFFFF" fill-rule="nonzero" xlink:href="#path-1"></use>
            </g>
        </g>
    </g>
</svg>