<?xml version="1.0" encoding="utf-8"?>
<!-- Generator: Adobe Illustrator 18.0.0, SVG Export Plug-In . SVG Version: 6.00 Build 0)  -->
<!DOCTYPE svg PUBLIC "-//W3C//DTD SVG 1.1//EN" "http://www.w3.org/Graphics/SVG/1.1/DTD/svg11.dtd">
<svg version="1.1" id="Layer_1" xmlns="http://www.w3.org/2000/svg" xmlns:xlink="http://www.w3.org/1999/xlink" x="0px" y="0px"
	 viewBox="0 0 225 225" enable-background="new 0 0 225 225" xml:space="preserve">
<g>
	<path fill="#FFFFFF" d="M15,225c-0.5-0.3-1.1-0.5-1.7-0.6C13.8,224.6,14.4,224.8,15,225z"/>
	<path fill="#FFFFFF" d="M213,138.4c-5.8-2.4-12-3.7-18.3-4.5c-14.9-1.8-29.5-0.2-44.2,2.2c-2.8,0.5-4.5-0.2-6.4-2.1
		c-11.7-11.9-21.3-25.4-29.9-39.7c-1.9-3.2-2.2-6-1-9.7c6.2-18.1,9.7-36.8,9.7-56c0-15.3-6.3-24.4-19-28.5c-2,0-4,0-6,0
		c-3.2,1.9-6.9,3.2-8.9,6.6c-2.7,4.5-3.8,9.5-4.1,14.6c-1.1,18.6,3.6,36.1,10.6,53.1c1.1,2.8,1.4,5.1,0.4,8
		c-8.8,25.5-18.7,50.4-31,74.4c-1.3,2.5-3,4.1-5.6,5.1c-10,3.9-19.7,8.6-28.8,14.2C18.2,183.7,5.6,191.4,0,206c0,2,0,4,0,6
		c2.1,6.8,7.1,10.3,13.3,12.4c0.6,0.1,1.2,0.2,1.7,0.6c2.3,0,4.7,0,7,0c10.3-2.8,18.6-8.8,26-16.4c12.9-13.3,22.7-28.9,31.8-45
		c1.1-1.9,2.1-3.5,4.4-4.2c18.2-6,36.5-11.6,55.3-15.3c3-0.6,5.2,0.3,7.6,2.3c14.7,12.9,31.4,21.7,51.2,24.3
		c12.5,1.6,21.3-2,26.8-11.8c0-3,0-6,0-9C222.9,144.2,218.5,140.7,213,138.4z M35.5,201.9C31,207,26.4,212,20.1,215.2
		c-4,2-7.9,2.9-11.3-0.8c-3.5-3.8-1.9-7.7,0.3-11.4c3.3-5.4,8-9.3,13-12.9c10.4-7.6,21.7-13.7,34-18.2
		C50.4,182.8,43.6,192.8,35.5,201.9z M92,18.5c1-6.8,4.7-11.5,9.2-11.3c4.5,0.1,7.7,4.9,7.8,12.1c0.2,16.7-3.6,32.7-8.9,48.6
		C94.3,51.7,89.5,35.7,92,18.5z M86.7,152.1c8.8-17.4,15.8-34.8,22-53.5c8.5,14.7,18.1,27.4,29.5,39.7
		C120.6,142.1,103.9,146.2,86.7,152.1z M209,153.8c-0.8,5.7-6.1,9.7-13.3,9.1c-11.5-0.9-21.5-6-31.1-12c-3.7-2.3-7.5-4.8-10.8-8.7
		c15.2-2.5,29.9-3.5,44.7-1C206.3,142.6,209.9,147.3,209,153.8z"/>
</g>
</svg>
