<?xml version="1.0" encoding="utf-8"?>
<!-- Generator: Adobe Illustrator 18.0.0, SVG Export Plug-In . SVG Version: 6.00 Build 0)  -->
<!DOCTYPE svg PUBLIC "-//W3C//DTD SVG 1.1//EN" "http://www.w3.org/Graphics/SVG/1.1/DTD/svg11.dtd">
<svg version="1.1" id="Layer_1" xmlns="http://www.w3.org/2000/svg" xmlns:xlink="http://www.w3.org/1999/xlink" x="0px" y="0px"
	 viewBox="0 0 65 44" enable-background="new 0 0 65 44" xml:space="preserve">
<g>
	<path id="path-1" fill="#FFFFFF" d="M32.2,18.1V8.8C32.2,8.4,32.6,8,33,8s0.8,0.4,0.8,0.8v9.3l1.8-1.8c0.3-0.3,0.8-0.3,1.1,0
		c0.3,0.3,0.3,0.8,0,1.1l-3.2,3.2c-0.3,0.3-0.8,0.3-1.1,0l-3.2-3.2c-0.3-0.3-0.3-0.8,0-1.1c0.3-0.3,0.8-0.3,1.1,0L32.2,18.1z
		 M25,20.8c0-0.4,0.4-0.8,0.8-0.8s0.8,0.4,0.8,0.8v2.4c0,0.4,0.4,0.8,0.8,0.8h11.2c0.4,0,0.8-0.4,0.8-0.8v-2.4
		c0-0.4,0.4-0.8,0.8-0.8c0.4,0,0.8,0.4,0.8,0.8v2.4c0,1.3-1.1,2.4-2.4,2.4H27.4c-1.3,0-2.4-1.1-2.4-2.4V20.8z"/>
</g>
<title>Group 10</title>
<desc>Created with Sketch.</desc>
<g id="Page-1">
	<g id="My-projects-Copy-2" transform="translate(-742.000000, -574.000000)">
		<g id="Group-10" transform="translate(742.000000, 574.000000)">
			<g id="noun_Pig_437493">
				<g id="Group">
					<path id="Shape" fill="#1A4FAD" d="M47.2,35.6c0.9,3,2.2,7.1,3.3,8.3h2.9c0,0-0.8-4.6-1.2-9.1C50.5,35.1,48.8,35.4,47.2,35.6z"
						/>
					<path id="Shape_1_" fill="#1A4FAD" d="M20.3,34.6c0,0.1-0.1,0.1-0.1,0.1c0.9,3.3,2.5,7.2,5.5,9.2H28c0,0-0.7-4.4-0.7-8
						C24.3,35.5,21.9,35.1,20.3,34.6z"/>
					<path id="Shape_2_" fill="#2C72EF" d="M57.1,16.8c0,0,9.2-0.4,6.8-11c-2.8,5-10.6,1.8-12.8,9.7c0,0-1-4.1,1.6-7
						C47.1-2.2,18.7-4,10.1,10.3c0,0-0.8-0.5-1.6-1.4c2.1-1,3.7-3.3,3.4-5.3c-0.4-2.1-3.1-3.5-5.3-2.5C4.1,2.2,3.8,4.4,4.4,6.7
						C3.5,6.3,2.6,5.5,1.6,4.4C1,3.7-0.5,4.5,0.6,6.1c0.9,1.2,2.7,2.7,4.7,3.1c1.2,2.7,3,5,3,5c-0.2,4,0,23.3,5,29.7h2.8
						c0,0,0.5-7.1,3.6-10.8c2.5,0.9,9.4,2.1,18.1,1.9c1.2,3.4,3.1,7.4,4.7,8.9h2.7c0,0-0.3-5.1-0.4-9.3c5.4-0.5,11.3-1.7,17-3.8
						c2.5-0.9,2.7-3.3,2.9-6.8C56.4,23.2,61.2,18.5,57.1,16.8z M6.9,7C6.3,5.8,6.1,4.6,7.4,3.7c1.4-1,2.9,0.5,1.6,1.9
						C8.3,6.2,7.7,6.7,6.9,7z M55.9,24.5c-0.8,0-1.5-0.7-1.5-1.5c0-0.8,0.7-1.5,1.5-1.5s1.5,0.7,1.5,1.5
						C57.4,23.9,56.7,24.5,55.9,24.5z"/>
				</g>
			</g>
		</g>
	</g>
</g>
</svg>
