<?xml version="1.0" encoding="utf-8"?>
<!-- Generator: Adobe Illustrator 18.0.0, SVG Export Plug-In . SVG Version: 6.00 Build 0)  -->
<!DOCTYPE svg PUBLIC "-//W3C//DTD SVG 1.1//EN" "http://www.w3.org/Graphics/SVG/1.1/DTD/svg11.dtd">
<svg version="1.1" id="Layer_1" xmlns="http://www.w3.org/2000/svg" xmlns:xlink="http://www.w3.org/1999/xlink" x="0px" y="0px"
	 viewBox="0 415 499.1 85.3" enable-background="new 0 415 499.1 85.3" xml:space="preserve">
<g enable-background="new    ">
	<path d="M145.7,475.2c-3,2.7-7.4,4.3-11.3,4.3c-5.4,0-9.9-3.3-12.5-8.7c-11.6-0.4-20.2-8.8-20.2-19.9c0-11.3,9-19.7,21-19.7
		c12,0,21,8.4,21,19.7c0,8.6-5.2,15.6-12.9,18.5c1.3,1.7,2.9,2.7,4.7,2.7s4.3-1.1,6.7-2.9L145.7,475.2z M122.8,462.5
		c6,0,10.8-5,10.8-11.6c0-6.5-4.8-11.5-10.8-11.5c-6,0-11,4.9-11,11.5C111.9,457.4,116.9,462.5,122.8,462.5z"/>
	<path d="M178.3,470.3h-9.6v-4.9c-2.1,3.6-5.4,5.3-9.7,5.3c-6.5,0-10.7-4.4-10.7-11.4v-18.9h9.6v16.1c0,3.6,1.9,5.7,5,5.7
		c3.7-0.1,5.8-3.1,5.8-7.1v-14.8h9.6V470.3z"/>
	<path d="M216.2,455.3c0,9.2-6.5,15.3-16.3,15.3c-9.8,0-16.4-6.1-16.4-15.3c0-9.2,6.5-15.3,16.4-15.3
		C209.6,440,216.2,446.1,216.2,455.3z M193.1,455.4c0,4.7,2.7,7.8,6.7,7.8c3.9,0,6.7-3.1,6.7-7.8c0-4.6-2.7-7.8-6.7-7.8
		C195.8,447.6,193.1,450.8,193.1,455.4z"/>
	<path d="M240.6,468.7c-2.2,1.3-5.1,2.1-8,2.1c-5.8,0-9.9-3.3-9.9-9.5V448h-4.2v-6.3h4.2v-8.3h9.5v8.3h7.8v6.3h-7.8v11.7
		c0,2.3,1,3.3,2.8,3.3c1,0,2.3-0.4,3.7-1L240.6,468.7z"/>
	<path d="M273.5,457.9h-21c0.9,3.6,3.5,5.5,7,5.5c2.6,0,5.2-1.1,7.2-3.1l5,4.9c-3.1,3.3-7.5,5.3-13,5.3c-9.8,0-15.9-6.1-15.9-15.2
		c0-9.3,6.3-15.4,15.6-15.4C268.9,440,274.1,447,273.5,457.9z M264.2,452.7c0-3.7-2.3-6-5.8-6c-3.3,0-5.6,2.4-6.2,6H264.2z"/>
	<path d="M321.7,470.3h-9.6v-3.9c-2.1,2.8-5.2,4.3-9,4.3c-8.4,0-14-6.2-14-15.5c0-9.2,5.5-15.2,13.8-15.2c3.9,0,7.1,1.6,9.2,4.3
		v-15.2h9.6V470.3z M312.1,455.4c0-4.6-2.7-7.8-6.7-7.8c-4,0-6.7,3.2-6.7,7.8c0.1,4.6,2.7,7.8,6.7,7.8
		C309.4,463.2,312.1,460,312.1,455.4z"/>
	<path d="M357.8,457.9h-21c0.9,3.6,3.5,5.5,7,5.5c2.6,0,5.2-1.1,7.2-3.1l5,4.9c-3.1,3.3-7.5,5.3-13,5.3c-9.8,0-15.9-6.1-15.9-15.2
		c0-9.3,6.3-15.4,15.6-15.4C353.2,440,358.4,447,357.8,457.9z M348.6,452.7c0-3.7-2.3-6-5.8-6c-3.3,0-5.6,2.4-6.2,6H348.6z"/>
	<path d="M392.8,431.4c9.9,0,15.6,4.9,15.6,13.5c0,9.1-5.7,14.4-15.6,14.4h-7v10.9h-9.9v-38.8H392.8z M385.8,451.6h6.5
		c4.3,0,6.8-2.2,6.8-6.3c0-4-2.5-6.1-6.8-6.1h-6.5V451.6z"/>
	<path d="M443.8,455.3c0,9.2-6.5,15.3-16.3,15.3c-9.8,0-16.4-6.1-16.4-15.3c0-9.2,6.5-15.3,16.4-15.3
		C437.2,440,443.8,446.1,443.8,455.3z M420.7,455.4c0,4.7,2.7,7.8,6.7,7.8c3.9,0,6.7-3.1,6.7-7.8c0-4.6-2.7-7.8-6.7-7.8
		C423.5,447.6,420.7,450.8,420.7,455.4z"/>
	<path d="M458.5,445.4c2.1-3.5,5.4-5.4,9.7-5.5v8.7c-5.5-0.5-9.2,2.1-9.7,6.3v15.4h-9.6v-29.9h9.6V445.4z"/>
	<path d="M499,446.8l-6.9,4.2c-1.4-1.9-3.4-3.1-6-3.1c-3.7,0-6.3,3.1-6.3,7.5c0,4.6,2.6,7.6,6.3,7.6c2.7,0,4.8-1.1,6.1-3.4l7,4.1
		c-2.4,4.4-7.3,6.9-13.6,6.9c-9.2,0-15.4-6.1-15.4-15.2c0-9.2,6.3-15.4,15.5-15.4C491.6,440,496.3,442.5,499,446.8z"/>
</g>
<path fill="#2258EA" d="M71.4,482c-4.2,3.3-8.6,5.1-11.7,5.1c-3.1,0-5.9-1.8-8.4-4.6c13.7-5.1,22.8-17.6,22.8-32.7
	C74.1,430,58.2,415,37,415c-21.1-0.1-37,14.7-37,34.8c0,19.6,15.2,34.4,35.8,35.2c4.4,9.5,12.6,15.4,22.1,15.4
	c6.8,0,14.6-2.8,19.9-7.6L71.4,482z M25.9,461.7c-3.3,0-5.9-4.4-5.9-10.2c0-5.5,2.6-10.2,5.9-10.2s5.9,4.4,5.9,10.2
	C31.8,457.1,29.2,461.7,25.9,461.7z M42.7,451.4c0-5.5,2.6-10.2,5.9-10.2c3.3,0,5.9,4.4,5.9,10.2c0,5.5-2.6,10.2-5.9,10.2
	C45.3,461.6,42.7,457.1,42.7,451.4z"/>
</svg>
