<?xml version="1.0" encoding="utf-8"?>
<!-- Generator: Adobe Illustrator 18.0.0, SVG Export Plug-In . SVG Version: 6.00 Build 0)  -->
<!DOCTYPE svg PUBLIC "-//W3C//DTD SVG 1.1//EN" "http://www.w3.org/Graphics/SVG/1.1/DTD/svg11.dtd">
<svg version="1.1" id="Layer_1" xmlns="http://www.w3.org/2000/svg" xmlns:xlink="http://www.w3.org/1999/xlink" x="0px" y="0px"
	 viewBox="0 0 493.4 493.4" enable-background="new 0 0 493.4 493.4" xml:space="preserve">
<linearGradient id="SVGID_1_" gradientUnits="userSpaceOnUse" x1="285.3943" y1="20.4365" x2="205.962" y2="470.9198">
	<stop  offset="0" style="stop-color:#FFFFFF"/>
	<stop  offset="1" style="stop-color:#BFD2DD"/>
</linearGradient>
<circle fill="url(#SVGID_1_)" cx="245.7" cy="245.7" r="228.7"/>
<linearGradient id="SVGID_2_" gradientUnits="userSpaceOnUse" x1="279.8046" y1="95.6766" x2="228.5127" y2="386.5674">
	<stop  offset="0" style="stop-color:#6277BA"/>
	<stop  offset="1" style="stop-color:#314783"/>
</linearGradient>
<path fill="url(#SVGID_2_)" d="M363.8,334c-15.4,12.1-30.9,18.8-42.3,18.8s-21.5-6.7-30.2-16.8c49.7-18.8,82.6-63.8,82.6-118.8
	c0-71.8-57.7-126.2-134.9-126.2c-76.5,0-134.3,53.7-134.3,126.2c0,71.2,55.1,124.9,129.6,127.6c16.1,34.2,45.7,55.7,79.9,55.7
	c24.8,0,53-10.1,72.5-27.5L363.8,334z M198.7,260.1c-12.1,0-21.5-16.1-21.5-36.9c0-20.1,9.4-36.9,21.5-36.9s21.5,16.1,21.5,36.9
	C220.2,244,210.8,260.1,198.7,260.1z M259.8,223.2c0-20.1,9.4-36.9,21.5-36.9c12.1,0,21.5,16.1,21.5,36.9c0,20.1-9.4,36.9-21.5,36.9
	C269.2,260.1,259.8,244,259.8,223.2z"/>
<g>
	
		<image overflow="visible" opacity="0.27" width="2056" height="2056" xlink:href="CD2C8BCBB7701266.png"  transform="matrix(0.24 0 0 0.24 0 0)">
	</image>
	<g>
		<linearGradient id="SVGID_3_" gradientUnits="userSpaceOnUse" x1="328.0162" y1="19.4562" x2="163.3401" y2="471.9001">
			<stop  offset="0" style="stop-color:#6277BA"/>
			<stop  offset="1" style="stop-color:#314783"/>
		</linearGradient>
		<circle fill="none" stroke="url(#SVGID_3_)" stroke-width="24" stroke-miterlimit="10" cx="245.7" cy="245.7" r="228.7"/>
	</g>
</g>
</svg>
