<?xml version="1.0" encoding="utf-8"?>
<!-- Generator: Adobe Illustrator 18.0.0, SVG Export Plug-In . SVG Version: 6.00 Build 0)  -->
<!DOCTYPE svg PUBLIC "-//W3C//DTD SVG 1.1//EN" "http://www.w3.org/Graphics/SVG/1.1/DTD/svg11.dtd">
<svg version="1.1" id="Layer_1" xmlns="http://www.w3.org/2000/svg" xmlns:xlink="http://www.w3.org/1999/xlink" x="0px" y="0px"
	 viewBox="0 622.3 499.1 85.4" enable-background="new 0 622.3 499.1 85.4" xml:space="preserve">
<g enable-background="new    ">
	<path fill="#FFFFFF" d="M145.7,682.5c-3,2.7-7.4,4.3-11.3,4.3c-5.4,0-9.9-3.3-12.5-8.7c-11.6-0.4-20.2-8.8-20.2-19.9
		c0-11.3,9-19.7,21-19.7c12,0,21,8.4,21,19.7c0,8.6-5.2,15.6-12.9,18.5c1.3,1.7,2.9,2.7,4.7,2.7s4.3-1.1,6.7-2.9L145.7,682.5z
		 M122.8,669.8c6,0,10.8-5,10.8-11.6s-4.8-11.5-10.8-11.5c-6,0-11,4.9-11,11.5S116.9,669.8,122.8,669.8z"/>
	<path fill="#FFFFFF" d="M178.3,677.6h-9.6v-4.9c-2.1,3.6-5.4,5.3-9.7,5.3c-6.5,0-10.7-4.4-10.7-11.4v-18.9h9.6v16.1
		c0,3.6,1.9,5.7,5,5.7c3.7-0.1,5.8-3.1,5.8-7.1v-14.8h9.6V677.6z"/>
	<path fill="#FFFFFF" d="M216.2,662.6c0,9.2-6.5,15.3-16.3,15.3c-9.8,0-16.4-6.1-16.4-15.3s6.5-15.3,16.4-15.3
		C209.6,647.4,216.2,653.4,216.2,662.6z M193.1,662.8c0,4.7,2.7,7.8,6.7,7.8c3.9,0,6.7-3.1,6.7-7.8c0-4.6-2.7-7.8-6.7-7.8
		C195.8,655,193.1,658.2,193.1,662.8z"/>
	<path fill="#FFFFFF" d="M240.6,676c-2.2,1.3-5.1,2.1-8,2.1c-5.8,0-9.9-3.3-9.9-9.5v-13.2h-4.2v-6.3h4.2v-8.3h9.5v8.3h7.8v6.3h-7.8
		v11.7c0,2.3,1,3.3,2.8,3.3c1,0,2.3-0.4,3.7-1L240.6,676z"/>
	<path fill="#FFFFFF" d="M273.5,665.3h-21c0.9,3.6,3.5,5.5,7,5.5c2.6,0,5.2-1.1,7.2-3.1l5,4.9c-3.1,3.3-7.5,5.3-13,5.3
		c-9.8,0-15.9-6.1-15.9-15.2c0-9.3,6.3-15.4,15.6-15.4C268.9,647.4,274.1,654.3,273.5,665.3z M264.3,660.1c0-3.7-2.3-6-5.8-6
		c-3.3,0-5.6,2.4-6.2,6H264.3z"/>
	<path fill="#FFFFFF" d="M321.7,677.6h-9.6v-3.9c-2.1,2.8-5.2,4.3-9,4.3c-8.4,0-14-6.2-14-15.5c0-9.2,5.5-15.2,13.8-15.2
		c3.9,0,7.1,1.6,9.2,4.3v-15.2h9.6V677.6z M312.1,662.8c0-4.6-2.7-7.8-6.7-7.8c-4,0-6.7,3.2-6.7,7.8c0.1,4.6,2.7,7.8,6.7,7.8
		C309.4,670.6,312.1,667.4,312.1,662.8z"/>
	<path fill="#FFFFFF" d="M357.8,665.3h-21c0.9,3.6,3.5,5.5,7,5.5c2.6,0,5.2-1.1,7.2-3.1l5,4.9c-3.1,3.3-7.5,5.3-13,5.3
		c-9.8,0-15.9-6.1-15.9-15.2c0-9.3,6.3-15.4,15.6-15.4C353.2,647.4,358.4,654.3,357.8,665.3z M348.6,660.1c0-3.7-2.3-6-5.8-6
		c-3.3,0-5.6,2.4-6.2,6H348.6z"/>
	<path fill="#FFFFFF" d="M392.8,638.8c9.9,0,15.6,4.9,15.6,13.5c0,9.1-5.7,14.4-15.6,14.4h-7v10.9h-9.9v-38.8H392.8z M385.8,658.9
		h6.5c4.3,0,6.8-2.2,6.8-6.3c0-4-2.5-6.1-6.8-6.1h-6.5V658.9z"/>
	<path fill="#FFFFFF" d="M443.8,662.6c0,9.2-6.5,15.3-16.3,15.3c-9.8,0-16.4-6.1-16.4-15.3s6.5-15.3,16.4-15.3
		C437.2,647.4,443.8,653.4,443.8,662.6z M420.7,662.8c0,4.7,2.7,7.8,6.7,7.8c3.9,0,6.7-3.1,6.7-7.8c0-4.6-2.7-7.8-6.7-7.8
		C423.5,655,420.7,658.2,420.7,662.8z"/>
	<path fill="#FFFFFF" d="M458.5,652.8c2.1-3.5,5.4-5.4,9.7-5.5v8.7c-5.5-0.5-9.2,2.1-9.7,6.3v15.4h-9.6v-29.9h9.6V652.8z"/>
	<path fill="#FFFFFF" d="M499,654.1l-6.9,4.2c-1.4-1.9-3.4-3.1-6-3.1c-3.7,0-6.3,3.1-6.3,7.5c0,4.6,2.6,7.6,6.3,7.6
		c2.7,0,4.8-1.1,6.1-3.4l7,4.1c-2.4,4.4-7.3,6.9-13.6,6.9c-9.2,0-15.4-6.1-15.4-15.2c0-9.2,6.3-15.4,15.5-15.4
		C491.6,647.4,496.3,649.8,499,654.1z"/>
</g>
<path fill="#2258EA" d="M71.4,689.3c-4.2,3.3-8.6,5.1-11.7,5.1c-3.1,0-5.9-1.8-8.4-4.6c13.7-5.1,22.8-17.6,22.8-32.7
	c0-19.8-15.9-34.8-37.1-34.8C15.9,622.2,0,637,0,657.1c0,19.6,15.2,34.4,35.8,35.2c4.4,9.5,12.6,15.4,22.1,15.4
	c6.8,0,14.6-2.8,19.9-7.6L71.4,689.3z M25.9,669c-3.3,0-5.9-4.4-5.9-10.2c0-5.5,2.6-10.2,5.9-10.2s5.9,4.4,5.9,10.2
	C31.8,664.5,29.2,669,25.9,669z M42.7,658.8c0-5.5,2.6-10.2,5.9-10.2c3.3,0,5.9,4.4,5.9,10.2c0,5.5-2.6,10.2-5.9,10.2
	S42.7,664.5,42.7,658.8z"/>
</svg>
