<?xml version="1.0" encoding="utf-8"?>
<!-- Generator: Adobe Illustrator 18.0.0, SVG Export Plug-In . SVG Version: 6.00 Build 0)  -->
<!DOCTYPE svg PUBLIC "-//W3C//DTD SVG 1.1//EN" "http://www.w3.org/Graphics/SVG/1.1/DTD/svg11.dtd">
<svg version="1.1" id="Layer_1" xmlns="http://www.w3.org/2000/svg" xmlns:xlink="http://www.w3.org/1999/xlink" x="0px" y="0px"
	 viewBox="0 0 42 46.1" enable-background="new 0 0 42 46.1" xml:space="preserve">
<path fill="#4261AD" d="M38.6,36.2C36.3,38,34,39,32.3,39c-1.7,0-3.2-1-4.5-2.5c7.4-2.8,12.3-9.5,12.3-17.7C40.1,8.1,31.5,0,20,0
	C8.6,0,0,8,0,18.8c0,10.6,8.2,18.6,19.3,19c2.4,5.1,6.8,8.3,11.9,8.3c3.7,0,7.9-1.5,10.8-4.1L38.6,36.2z M14,25.2
	c-1.8,0-3.2-2.4-3.2-5.5c0-3,1.4-5.5,3.2-5.5s3.2,2.4,3.2,5.5C17.2,22.8,15.8,25.2,14,25.2z M23.1,19.7c0-3,1.4-5.5,3.2-5.5
	s3.2,2.4,3.2,5.5c0,3-1.4,5.5-3.2,5.5S23.1,22.8,23.1,19.7z"/>
</svg>
