<?xml version="1.0" encoding="utf-8"?>
<!-- Generator: Adobe Illustrator 18.0.0, SVG Export Plug-In . SVG Version: 6.00 Build 0)  -->
<!DOCTYPE svg PUBLIC "-//W3C//DTD SVG 1.1//EN" "http://www.w3.org/Graphics/SVG/1.1/DTD/svg11.dtd">
<svg version="1.1" id="Layer_1" xmlns="http://www.w3.org/2000/svg" xmlns:xlink="http://www.w3.org/1999/xlink" x="0px" y="0px"
	 viewBox="5.2 5.2 487.5 487.5" enable-background="new 5.2 5.2 487.5 487.5" xml:space="preserve">
<linearGradient id="SVGID_1_" gradientUnits="userSpaceOnUse" x1="285.42" y1="479.5632" x2="205.98" y2="29.0368" gradientTransform="matrix(1.0134 0 0 -1.0134 0 506.6883)">
	<stop  offset="0" style="stop-color:#FFFFFF"/>
	<stop  offset="1" style="stop-color:#BFD2DD"/>
</linearGradient>
<circle fill="url(#SVGID_1_)" cx="249" cy="249" r="231.8"/>
<linearGradient id="SVGID_2_" gradientUnits="userSpaceOnUse" x1="279.8293" y1="404.2552" x2="228.5372" y2="113.3637" gradientTransform="matrix(1.0134 0 0 -1.0134 0 506.6883)">
	<stop  offset="0" style="stop-color:#4276EA"/>
	<stop  offset="1" style="stop-color:#2237D9"/>
</linearGradient>
<path fill="url(#SVGID_2_)" d="M368.7,338.5c-15.6,12.3-31.3,19.1-42.9,19.1s-21.8-6.8-30.6-17c50.4-19.1,83.7-64.7,83.7-120.4
	c0-72.8-58.5-127.9-136.7-127.9c-77.5,0-136.1,54.4-136.1,127.9c0,72.2,55.8,126.6,131.3,129.3c16.3,34.7,46.3,56.4,81,56.4
	c25.1,0,53.7-10.2,73.5-27.9L368.7,338.5z M201.4,263.6c-12.3,0-21.8-16.3-21.8-37.4c0-20.4,9.5-37.4,21.8-37.4
	c12.3,0,21.8,16.3,21.8,37.4S213.6,263.6,201.4,263.6z M263.3,226.2c0-20.4,9.5-37.4,21.8-37.4c12.3,0,21.8,16.3,21.8,37.4
	c0,20.4-9.5,37.4-21.8,37.4C272.8,263.6,263.3,247.3,263.3,226.2z"/>
<g>
	
		<image overflow="visible" opacity="0.25" width="500" height="500" xlink:href="CD2C8BCBB7701266.png"  transform="matrix(1 0 0 1 0 2)">
	</image>
	<g>
		<g>
			
				<linearGradient id="SVGID_3_" gradientUnits="userSpaceOnUse" x1="328.0455" y1="480.5425" x2="163.3545" y2="28.0575" gradientTransform="matrix(1.0134 0 0 -1.0134 0 506.6883)">
				<stop  offset="0" style="stop-color:#4276EA"/>
				<stop  offset="1" style="stop-color:#2237D9"/>
			</linearGradient>
			<path fill="none" stroke="url(#SVGID_3_)" stroke-width="24" stroke-miterlimit="10" d="M249,17.2C377,17.2,480.7,121,480.7,249
				S377,480.7,249,480.7S17.2,377,17.2,249c0-29.7,5.6-58.2,15.8-84.3C66.7,78.4,150.7,17.2,249,17.2z"/>
		</g>
	</g>
</g>
</svg>
