<?xml version="1.0" encoding="utf-8"?>
<!-- Generator: Adobe Illustrator 18.0.0, SVG Export Plug-In . SVG Version: 6.00 Build 0)  -->
<!DOCTYPE svg PUBLIC "-//W3C//DTD SVG 1.1//EN" "http://www.w3.org/Graphics/SVG/1.1/DTD/svg11.dtd">
<svg version="1.1" id="Layer_1" xmlns="http://www.w3.org/2000/svg" xmlns:xlink="http://www.w3.org/1999/xlink" x="0px" y="0px"
	 viewBox="0 207.6 496.4 84.7" enable-background="new 0 207.6 496.4 84.7" xml:space="preserve">
<text transform="matrix(1 0 0 1 99.7102 262.5363)" font-family="'TruenoBd'" font-size="55.0744">Quote de Porc</text>
<path fill="#2258EA" d="M70.9,274.2c-4.2,3.3-8.5,5.1-11.6,5.1s-5.9-1.8-8.3-4.6c13.6-5.1,22.6-17.5,22.6-32.5
	c0-19.7-15.8-34.5-36.9-34.5C15.8,207.6,0,222.3,0,242.2c0,19.5,15.1,34.2,35.5,34.9c4.4,9.4,12.5,15.3,21.9,15.3
	c6.8,0,14.5-2.8,19.8-7.5L70.9,274.2z M25.7,254c-3.3,0-5.9-4.4-5.9-10.1c0-5.5,2.6-10.1,5.9-10.1s5.9,4.4,5.9,10.1
	C31.6,249.5,29,254,25.7,254z M42.4,243.8c0-5.5,2.6-10.1,5.9-10.1s5.9,4.4,5.9,10.1c0,5.5-2.6,10.1-5.9,10.1S42.4,249.5,42.4,243.8
	z"/>
</svg>
