<?xml version="1.0" encoding="utf-8"?>
<!-- Generator: Adobe Illustrator 18.0.0, SVG Export Plug-In . SVG Version: 6.00 Build 0)  -->
<!DOCTYPE svg PUBLIC "-//W3C//DTD SVG 1.1//EN" "http://www.w3.org/Graphics/SVG/1.1/DTD/svg11.dtd">
<svg version="1.1" id="Layer_1" xmlns="http://www.w3.org/2000/svg" xmlns:xlink="http://www.w3.org/1999/xlink" x="0px" y="0px"
	 viewBox="0 415 500 85.3" enable-background="new 0 415 500 85.3" xml:space="preserve">
<text transform="matrix(1 0 0 1 100.4336 470.2783)" fill="#FFFFFF" font-family="'TruenoBd'" font-size="55.4738">Quote de Porc</text>
<path fill="#2258EA" d="M71.4,482c-4.2,3.3-8.6,5.1-11.7,5.1c-3.1,0-5.9-1.8-8.4-4.6c13.7-5.1,22.8-17.6,22.8-32.7
	C74.1,430,58.2,415,37,415c-21.1-0.1-37,14.7-37,34.8c0,19.6,15.2,34.4,35.8,35.2c4.4,9.5,12.6,15.4,22.1,15.4
	c6.8,0,14.6-2.8,19.9-7.6L71.4,482z M25.9,461.7c-3.3,0-5.9-4.4-5.9-10.2c0-5.5,2.6-10.2,5.9-10.2s5.9,4.4,5.9,10.2
	C31.8,457.1,29.2,461.7,25.9,461.7z M42.7,451.4c0-5.5,2.6-10.2,5.9-10.2c3.3,0,5.9,4.4,5.9,10.2c0,5.5-2.6,10.2-5.9,10.2
	C45.3,461.6,42.7,457.1,42.7,451.4z"/>
</svg>
